PathFileType	4	(X/Y/Z)	C:/Users/opensim2020/Desktop/walking_exp_matlab/subject06_walking14_straight_03.trc																																																																																																																																					
DataRate	CameraRate	NumFrames	NumMarkers	Units	OrigDataRate	OrigDataStartFrame	OrigNumFrames																																																																																																																																	
100	100	7	45	mm	100	2411	233																																																																																																																																	
Frame#	Time	LFHD			RFHD			LBHD			RBHD			C7			T10			CLAV			STRN			RBAK			LSHO			LUPA			LELB			LFRM			LWRA			LWRB			LFIN			RSHO			RUPA			RELB			RFRM			RWRA			RWRB			RFIN			LASI			RASI			LPSI			RPSI			LTHI			LKNE			LTIB			LANK			LHEE			LTOE			RTHI			RKNE			RTIB			RANK			RHEE			RTOE			*39			*40			*41			*42			*43			*44		
		X1	Y1	Z1	X2	Y2	Z2	X3	Y3	Z3	X4	Y4	Z4	X5	Y5	Z5	X6	Y6	Z6	X7	Y7	Z7	X8	Y8	Z8	X9	Y9	Z9	X10	Y10	Z10	X11	Y11	Z11	X12	Y12	Z12	X13	Y13	Z13	X14	Y14	Z14	X15	Y15	Z15	X16	Y16	Z16	X17	Y17	Z17	X18	Y18	Z18	X19	Y19	Z19	X20	Y20	Z20	X21	Y21	Z21	X22	Y22	Z22	X23	Y23	Z23	X24	Y24	Z24	X25	Y25	Z25	X26	Y26	Z26	X27	Y27	Z27	X28	Y28	Z28	X29	Y29	Z29	X30	Y30	Z30	X31	Y31	Z31	X32	Y32	Z32	X33	Y33	Z33	X34	Y34	Z34	X35	Y35	Z35	X36	Y36	Z36	X37	Y37	Z37	X38	Y38	Z38	X39	Y39	Z39	X40	Y40	Z40	X41	Y41	Z41	X42	Y42	Z42	X43	Y43	Z43	X44	Y44	Z44	X45	Y45	Z45
																																																																																																																																								
204	2.03	1133.53931	1651.27393	1342.83008	1148.84229	1648.66699	1473.42297	1001.48706	1597.18945	1361.06787	1017.88434	1599.77539	1489.48108	1008.23193	1443.17114	1424.99597	968.36487	1116.03076	1450.06543	1118.22595	1366.17212	1420.10327	1156.57129	1190.65955	1421.57507	941.06665	1278.02661	1520.53259	1048.32068	1389.99524	1261.77625	989.87604	1194.98035	1202.63818	947.59082	1090.26245	1201.3905	920.29797	942.82697	1178.53357	952.88519	812.99347	1205.02405	886.51624	828.45917	1186.06702	898.71594	738.74939	1176.87268	1083.15942	1407.1543	1581.26978	1076.72144	1215.38098	1686.7406	1112.92859	1102.89978	1705.01318	1195.07263	1019.9342	1708.95679	1321.65076	960.81915	1650.14722	1289.51404	922.76935	1694.68799	1367.53552	895.24176	1683.84546	1141.89624	954.5293	1336.65308	1143.40759	959.07855	1555.45044	982.21582	978.99634	1364.31494	991.73138	987.59314	1532.75488	1128.70605	642.02081	1269.20825	1187.24585	491.82742	1301.19287	1231.22913	241.28519	1311.38843	1294.81775	78.77228	1349.68872	1268.3761	54.18027	1402.50671	1439.17261	93.41772	1335.36743	1039.70374	628.30109	1605.39832	1011.05835	503.94287	1585.80029	878.52106	267.08499	1580.59033	800.42981	96.60065	1535.67444	752.76135	83.17775	1493.15637	941.10095	37.1836	1529.87769	1040.32361	1693.67395	1410.24072	NaN	NaN	NaN	NaN	NaN	NaN	NaN	NaN	NaN	NaN	NaN	NaN	NaN	NaN	NaN
205	2.04	1143.78015	1650.27393	1341.36707	1159.31104	1647.73914	1471.995	1011.83044	1596.42737	1359.73157	1028.31726	1599.03308	1488.18262	1018.57031	1442.1698	1423.7074	979.36639	1115.14233	1448.40857	1128.69678	1365.3667	1418.89001	1167.47131	1189.95496	1420.38379	951.57587	1276.995	1519.20874	1058.57825	1389.05908	1260.5769	999.20569	1194.49231	1201.69727	956.21143	1090.14746	1200.69067	927.36755	942.9856	1177.63599	959.16541	812.85193	1203.62329	892.62122	828.94757	1185.09399	904.05072	739.08392	1175.95007	1093.39246	1406.28357	1580.02588	1087.1665	1214.49133	1685.35461	1123.59863	1102.18982	1703.55432	1206.37952	1019.99622	1707.08423	1333.25488	962.38849	1647.63818	1301.73547	923.88049	1692.19067	1379.97205	897.28174	1680.97534	1153.36572	953.55359	1335.82727	1153.49597	958.48761	1554.77783	993.70013	977.85828	1362.49475	1001.96082	986.47949	1530.7229	1140.40442	640.87537	1268.75793	1198.16467	490.75439	1300.82129	1243.27063	240.17256	1311.92261	1307.89624	78.03255	1350.47961	1281.62134	53.29655	1403.47827	1452.34521	93.40393	1335.95874	1049.95129	627.58118	1604.51953	1021.53967	503.37952	1585.19104	884.4632	268.49673	1580.19067	802.35596	99.77608	1535.87073	754.23212	87.52104	1493.05896	941.30927	37.14209	1530.01501	1050.7738	1692.8606	1408.83398	NaN	NaN	NaN	NaN	NaN	NaN	NaN	NaN	NaN	NaN	NaN	NaN	NaN	NaN	NaN
206	2.05	1154.34863	1649.42017	1339.87524	1169.7948	1646.92224	1470.49524	1022.21631	1595.70947	1358.36694	1038.71912	1598.37622	1486.7915	1028.91821	1441.27856	1422.48364	989.85712	1114.09607	1446.62744	1139.20776	1364.65125	1417.57471	1178.41711	1189.38342	1419.07654	962.14453	1275.88416	1517.74976	1068.97644	1388.21826	1259.29651	1008.78162	1194.052	1200.46069	964.83521	1089.98938	1199.51318	934.97125	943.03809	1176.63403	965.77417	812.57257	1202.61682	899.49048	829.22443	1184.19385	910.07318	739.23029	1174.92444	1103.64636	1405.48743	1578.71362	1097.45776	1213.65466	1683.89526	1133.98877	1101.48694	1701.9624	1217.23962	1019.88885	1705.16101	1344.44556	963.53076	1645.29529	1313.2959	924.60815	1689.73523	1391.7085	898.65619	1678.14795	1164.81189	952.6806	1334.94006	1163.8136	958.04675	1554.09033	1005.16309	976.65784	1360.49695	1012.15045	985.36603	1528.63379	1152.31177	639.83783	1268.48096	1210.14795	490.15076	1300.57861	1254.30786	238.91669	1312.05676	1318.12354	76.58715	1351.32092	1291.34387	52.02912	1404.42786	1462.66724	91.44982	1337.14868	1060.4917	626.85657	1603.51501	1032.71509	502.47519	1584.35266	890.78815	270.17352	1579.73999	804.57495	103.40491	1535.91589	756.28656	92.29659	1493.1123	941.45575	37.08531	1529.85742	1061.32153	1692.13562	1407.39478	NaN	NaN	NaN	NaN	NaN	NaN	NaN	NaN	NaN	NaN	NaN	NaN	NaN	NaN	NaN
207	2.06	1164.64258	1648.55957	1338.26807	1180.32092	1646.21338	1468.9176	1032.10217	1595.02161	1356.76636	1049.22205	1597.83447	1485.35229	1039.43762	1440.36304	1421.10852	1001.44141	1112.94446	1444.78638	1149.42773	1363.80627	1415.74084	1189.44543	1188.8739	1417.66138	972.75775	1275.08752	1516.33594	1079.32324	1387.50769	1257.95105	1018.56934	1193.60791	1199.29602	974.19415	1089.71692	1198.44678	943.34991	943.01984	1175.53467	973.73792	812.3877	1200.86584	907.22791	829.45483	1183.16772	917.06818	739.36218	1173.77917	1113.90991	1404.76343	1577.33105	1107.61804	1212.88428	1682.41394	1144.10095	1100.71887	1700.24109	1227.66321	1019.60718	1703.18945	1354.58862	963.62933	1642.27051	1324.1814	924.888	1687.34509	1402.72437	899.44098	1675.4082	1176.51929	951.9917	1333.86194	1174.1145	957.5658	1553.22839	1016.72144	975.45612	1358.6189	1022.659	984.19513	1526.40564	1164.79163	639.04706	1268.36902	1222.92834	489.90152	1300.27283	1264.32214	237.55037	1312.28271	1325.5708	74.39531	1352.10742	1298.15466	50.11442	1404.7572	1470.35144	87.67992	1339.27197	1071.48755	626.37091	1602.91809	1044.3678	501.54071	1583.48547	897.56354	272.08228	1579.21948	807.19037	107.48701	1536.05042	758.8847	97.71626	1493.21375	941.83099	37.17465	1529.88721	1071.85168	1691.4895	1405.87756	NaN	NaN	NaN	NaN	NaN	NaN	NaN	NaN	NaN	NaN	NaN	NaN	NaN	NaN	NaN
208	2.07	1175.1571	1647.87964	1336.63354	1190.86609	1645.61829	1467.2804	1042.49182	1594.41895	1355.28003	1059.70593	1597.32837	1483.85229	1049.75842	1439.6604	1419.7312	1012.56012	1112.23145	1442.79602	1160.10291	1363.37805	1414.35669	1200.5271	1188.51892	1416.14807	983.41846	1274.19275	1514.75574	1089.65356	1386.90027	1256.51855	1028.67639	1193.21741	1198.00049	984.04303	1089.37537	1197.31738	952.41064	942.88788	1174.349	981.81891	811.93579	1199.8125	915.578	829.45032	1182.14526	924.8208	739.3877	1172.56934	1124.22009	1404.04614	1575.86157	1117.66602	1212.18579	1680.80847	1153.92249	1099.96497	1698.46252	1237.66577	1019.06775	1701.18872	1364.60706	963.67487	1639.90588	1334.46423	924.74133	1684.95642	1413.07617	899.5191	1672.80493	1188.49817	951.41309	1332.66345	1185.18506	957.46198	1552.44043	1028.7876	974.34558	1356.521	1033.53198	983.24103	1524.1731	1177.67749	638.45502	1268.36023	1236.3833	489.79837	1299.80566	1273.37646	236.02885	1312.15552	1330.86047	71.85355	1352.71497	1301.99194	48.52352	1404.82666	1475.92065	82.75462	1342.24341	1082.89771	625.89258	1602.21899	1056.63171	500.84503	1583.17236	904.84216	274.30905	1578.81799	810.21509	112.0429	1536.11267	761.90985	103.69219	1493.35901	942.18646	37.14523	1529.88806	1082.31555	1690.89355	1404.26196	NaN	NaN	NaN	NaN	NaN	NaN	NaN	NaN	NaN	NaN	NaN	NaN	NaN	NaN	NaN
209	2.08	1185.59668	1647.28418	1334.98767	1201.38232	1645.09021	1465.56104	1052.93079	1593.8833	1353.82068	1070.2478	1596.88306	1482.34656	1060.1803	1439.0658	1418.23145	1023.95862	1111.16553	1440.54321	1170.77441	1362.99268	1412.79272	1211.68774	1188.28552	1414.54785	994.05151	1273.34814	1512.97961	1100.0686	1386.453	1254.94629	1038.93982	1192.82056	1196.59753	994.33215	1088.98315	1196.09839	962.07544	942.67108	1173.21948	991.01141	811.55481	1198.39563	924.89618	829.44604	1180.96118	933.35657	739.33295	1171.3844	1134.52319	1403.33765	1574.28589	1127.48523	1211.46655	1679.04932	1163.43848	1099.16687	1696.56445	1247.1864	1018.33484	1699.14795	1374.13013	963.20325	1637.60901	1344.07251	924.14154	1682.66455	1422.67542	899.00464	1670.2771	1200.86926	950.99414	1331.35999	1196.48938	957.31421	1551.41699	1041.03223	973.3985	1354.42468	1044.71753	982.36676	1521.93823	1191.13684	638.14716	1268.62305	1249.79114	489.45831	1299.37354	1281.4281	234.3875	1312.02881	1334.14233	69.09747	1353.48499	1303.71191	46.40717	1404.99097	1479.68921	76.43145	1345.73303	1094.76941	625.35522	1601.53857	1069.53503	500.03607	1582.8645	912.68091	276.86023	1578.38074	813.77966	117.19897	1536.01001	765.70392	110.47646	1493.07263	942.73126	37.22705	1529.94421	1092.83081	1690.3606	1402.68054	NaN	NaN	NaN	NaN	NaN	NaN	NaN	NaN	NaN	NaN	NaN	NaN	NaN	NaN	NaN
210	2.09	1195.97363	1646.87354	1333.28162	1211.94385	1644.73682	1463.88306	1063.39136	1593.42798	1352.24609	1080.79053	1596.49451	1480.76172	1070.51929	1438.40613	1416.56982	1035.80945	1110.27295	1438.35742	1181.43921	1362.6792	1411.04858	1223.01062	1188.17163	1412.81824	1004.73871	1272.61475	1510.99011	1110.50171	1386.12817	1253.24927	1049.34326	1192.47009	1195.25024	1005.08429	1088.54211	1194.6582	972.52991	942.31	1171.86255	1001.32092	811.18713	1196.72461	935.01923	829.27203	1179.73047	942.99951	739.13379	1170.12817	1144.81836	1402.7002	1572.6134	1137.26904	1210.84241	1677.32214	1172.70911	1098.34534	1694.68896	1256.31128	1017.38257	1697.13525	1383.11292	962.17188	1635.42358	1353.09961	923.05328	1680.45581	1431.61133	897.79602	1667.84827	1213.51282	950.69519	1329.97241	1208.01428	957.34625	1550.13892	1053.34497	972.8075	1352.16675	1056.20862	981.8877	1519.74243	1204.93433	637.86969	1268.71436	1262.58655	488.89728	1298.68176	1289.16064	233.12622	1312.75806	1337.83093	67.55828	1354.75549	1306.08984	47.20329	1406.38965	1483.32349	67.58486	1348.20313	1107.21423	624.8385	1600.86438	1083.19238	499.19653	1582.92468	921.19415	279.67087	1577.91992	817.91803	122.90878	1535.69458	770.0163	118.09756	1492.27771	943.03601	37.26222	1529.62915	1103.27429	1689.96582	1401.02576	NaN	NaN	NaN	NaN	NaN	NaN	NaN	NaN	NaN	NaN	NaN	NaN	NaN	NaN	NaN
